{
 "cells": [
  {
   "cell_type": "code",
   "execution_count": 1,
   "metadata": {},
   "outputs": [],
   "source": [
    "import os\n",
    "from pathlib import Path\n",
    "\n",
    "import pandas as pd"
   ]
  },
  {
   "cell_type": "code",
   "execution_count": 2,
   "metadata": {},
   "outputs": [],
   "source": [
    "def map_label_to_string(label: int) -> str:\n",
    "    if label == 0:\n",
    "        return \"Negative\"\n",
    "    elif label == 1:\n",
    "        return \"Neutral\"\n",
    "    else:\n",
    "        return \"Positive\""
   ]
  },
  {
   "cell_type": "code",
   "execution_count": 3,
   "metadata": {},
   "outputs": [],
   "source": [
    "amazon_file_name = \"amazon_llama-2-7b.tsv\"\n",
    "ns_prompts__file_name = \"NS-prompts_llama-2-7b.tsv\"\n",
    "regard_file_name = \"regard_llama-2-7b.tsv\"\n",
    "\n",
    "REPO_ABS_PATH = Path(os.path.abspath(\"\")).parent.parent\n",
    "predictions_stub = f\"{REPO_ABS_PATH}/unstated_norms_llm_bias/finetuning_classification/predictions/lora-fine-tuned/\""
   ]
  },
  {
   "cell_type": "code",
   "execution_count": 4,
   "metadata": {},
   "outputs": [
    {
     "name": "stdout",
     "output_type": "stream",
     "text": [
      "Amazon Dataset Stats\n",
      "Number of total samples: 3300\n",
      "Label Counts\n",
      "y_true  \n",
      "Negative    1100\n",
      "Neutral     1100\n",
      "Positive    1100\n",
      "dtype: int64\n",
      "Group Counts\n",
      "group           \n",
      "american_indian     900\n",
      "african_american    600\n",
      "hispanic            600\n",
      "pacific_islander    600\n",
      "asian               300\n",
      "white               300\n",
      "dtype: int64\n",
      "Label-Group Pairs\n",
      "y_true    group           \n",
      "Negative  african_american    200\n",
      "          american_indian     300\n",
      "          asian               100\n",
      "          hispanic            200\n",
      "          pacific_islander    200\n",
      "          white               100\n",
      "Neutral   african_american    200\n",
      "          american_indian     300\n",
      "          asian               100\n",
      "          hispanic            200\n",
      "          pacific_islander    200\n",
      "          white               100\n",
      "Positive  african_american    200\n",
      "          american_indian     300\n",
      "          asian               100\n",
      "          hispanic            200\n",
      "          pacific_islander    200\n",
      "          white               100\n",
      "dtype: int64\n"
     ]
    }
   ],
   "source": [
    "predictions_path = f\"{predictions_stub}{amazon_file_name}\"\n",
    "\n",
    "dataframe = pd.read_csv(predictions_path, delimiter=\"\\t\")\n",
    "dataframe[\"y_true\"] = dataframe[\"y_true\"].apply(map_label_to_string)\n",
    "\n",
    "winnowed_dataframe = dataframe[[\"y_true\", \"group\"]]\n",
    "\n",
    "sample_count = len(winnowed_dataframe)\n",
    "\n",
    "\n",
    "label_group_counts = winnowed_dataframe.value_counts(sort=False)\n",
    "label_counts = winnowed_dataframe[[\"y_true\"]].value_counts()\n",
    "group_counts = winnowed_dataframe[[\"group\"]].value_counts()\n",
    "\n",
    "print(\"Amazon Dataset Stats\")\n",
    "print(f\"Number of total samples: {sample_count}\")\n",
    "print(\"Label Counts\")\n",
    "print(label_counts)\n",
    "print(\"Group Counts\")\n",
    "print(group_counts)\n",
    "print(\"Label-Group Pairs\")\n",
    "print(label_group_counts)"
   ]
  },
  {
   "cell_type": "code",
   "execution_count": 5,
   "metadata": {},
   "outputs": [
    {
     "name": "stdout",
     "output_type": "stream",
     "text": [
      "NS Prompts Dataset Stats\n",
      "Number of total samples: 48840\n",
      "Label Counts\n",
      "y_true \n",
      "Neutral    48840\n",
      "dtype: int64\n",
      "Group Counts\n",
      "group           \n",
      "american_indian     13320\n",
      "african_american     8880\n",
      "hispanic             8880\n",
      "pacific_islander     8880\n",
      "asian                4440\n",
      "white                4440\n",
      "dtype: int64\n",
      "Label-Group Pairs\n",
      "y_true   group           \n",
      "Neutral  african_american     8880\n",
      "         american_indian     13320\n",
      "         asian                4440\n",
      "         hispanic             8880\n",
      "         pacific_islander     8880\n",
      "         white                4440\n",
      "dtype: int64\n"
     ]
    }
   ],
   "source": [
    "predictions_path = f\"{predictions_stub}{ns_prompts__file_name}\"\n",
    "\n",
    "dataframe = pd.read_csv(predictions_path, delimiter=\"\\t\")\n",
    "dataframe[\"y_true\"] = dataframe[\"y_true\"].apply(map_label_to_string)\n",
    "\n",
    "winnowed_dataframe = dataframe[[\"y_true\", \"group\"]]\n",
    "\n",
    "sample_count = len(winnowed_dataframe)\n",
    "\n",
    "\n",
    "label_group_counts = winnowed_dataframe.value_counts(sort=False)\n",
    "label_counts = winnowed_dataframe[[\"y_true\"]].value_counts()\n",
    "group_counts = winnowed_dataframe[[\"group\"]].value_counts()\n",
    "\n",
    "print(\"NS Prompts Dataset Stats\")\n",
    "print(f\"Number of total samples: {sample_count}\")\n",
    "print(\"Label Counts\")\n",
    "print(label_counts)\n",
    "print(\"Group Counts\")\n",
    "print(group_counts)\n",
    "print(\"Label-Group Pairs\")\n",
    "print(label_group_counts)"
   ]
  },
  {
   "cell_type": "code",
   "execution_count": 6,
   "metadata": {},
   "outputs": [
    {
     "name": "stdout",
     "output_type": "stream",
     "text": [
      "Regard Dataset Stats\n",
      "Number of total samples: 5555\n",
      "Label Counts\n",
      "y_true  \n",
      "Negative    2420\n",
      "Positive    1925\n",
      "Neutral     1210\n",
      "dtype: int64\n",
      "Group Counts\n",
      "group           \n",
      "american_indian     1515\n",
      "african_american    1010\n",
      "hispanic            1010\n",
      "pacific_islander    1010\n",
      "asian                505\n",
      "white                505\n",
      "dtype: int64\n",
      "Label-Group Pairs\n",
      "y_true    group           \n",
      "Negative  african_american    440\n",
      "          american_indian     660\n",
      "          asian               220\n",
      "          hispanic            440\n",
      "          pacific_islander    440\n",
      "          white               220\n",
      "Neutral   african_american    220\n",
      "          american_indian     330\n",
      "          asian               110\n",
      "          hispanic            220\n",
      "          pacific_islander    220\n",
      "          white               110\n",
      "Positive  african_american    350\n",
      "          american_indian     525\n",
      "          asian               175\n",
      "          hispanic            350\n",
      "          pacific_islander    350\n",
      "          white               175\n",
      "dtype: int64\n"
     ]
    }
   ],
   "source": [
    "predictions_path = f\"{predictions_stub}{regard_file_name}\"\n",
    "\n",
    "dataframe = pd.read_csv(predictions_path, delimiter=\"\\t\")\n",
    "dataframe[\"y_true\"] = dataframe[\"y_true\"].apply(map_label_to_string)\n",
    "\n",
    "winnowed_dataframe = dataframe[[\"y_true\", \"group\"]]\n",
    "\n",
    "sample_count = len(winnowed_dataframe)\n",
    "\n",
    "\n",
    "label_group_counts = winnowed_dataframe.value_counts(sort=False)\n",
    "label_counts = winnowed_dataframe[[\"y_true\"]].value_counts()\n",
    "group_counts = winnowed_dataframe[[\"group\"]].value_counts()\n",
    "\n",
    "print(\"Regard Dataset Stats\")\n",
    "print(f\"Number of total samples: {sample_count}\")\n",
    "print(\"Label Counts\")\n",
    "print(label_counts)\n",
    "print(\"Group Counts\")\n",
    "print(group_counts)\n",
    "print(\"Label-Group Pairs\")\n",
    "print(label_group_counts)"
   ]
  }
 ],
 "metadata": {
  "kernelspec": {
   "display_name": "llms_templates",
   "language": "python",
   "name": "python3"
  },
  "language_info": {
   "codemirror_mode": {
    "name": "ipython",
    "version": 3
   },
   "file_extension": ".py",
   "mimetype": "text/x-python",
   "name": "python",
   "nbconvert_exporter": "python",
   "pygments_lexer": "ipython3",
   "version": "3.10.18"
  }
 },
 "nbformat": 4,
 "nbformat_minor": 2
}
